<svg width="26" height="26" viewBox="0 0 26 26" fill="none" xmlns="http://www.w3.org/2000/svg">
<g clip-path="url(#clip0_3339_1554)">
<path d="M6.40653 19.1223C5.95112 18.3955 5.7415 17.5745 5.7025 16.7238C5.69315 16.504 5.55218 16.4004 5.38847 16.3854C5.32431 16.3071 5.23424 16.2543 5.13456 16.2367C4.6755 16.1575 4.21318 16.231 3.75087 16.2152C3.67641 16.2129 3.60269 16.2305 3.53718 16.2659C3.2065 16.2066 2.84981 16.6173 3.12281 16.9582C4.02225 18.0863 4.02387 19.3681 4.28022 20.7099C4.42972 21.4907 5.0395 22.3325 5.93203 22.2289C6.8465 22.1228 7.20725 21.4574 7.1264 20.5917C7.07643 20.0648 6.67628 19.5513 6.40653 19.1211" fill="#DE374B"/>
<path d="M4.97252 18.6096C5.21952 19.5959 5.44255 20.9256 6.70802 21.0552C6.84736 21.0694 6.98183 21.0621 7.11833 21.0621C7.13499 20.9142 7.1419 20.7598 7.12605 20.5945C7.0769 20.0676 6.67674 19.5537 6.40699 19.1239C5.95158 18.3971 5.74196 17.5761 5.70296 16.7254C5.6928 16.5056 5.55143 16.402 5.38893 16.387C5.32477 16.3087 5.2347 16.2559 5.13502 16.2383C4.74177 16.1708 4.34527 16.2127 3.94836 16.2167C4.44846 16.8952 4.7499 17.7211 4.97293 18.6091" fill="#B5304D"/>
<path d="M16.7334 19.6381C11.7024 18.6671 6.66895 17.6986 1.63714 16.7289C1.17889 16.6395 1.10495 16.096 1.50592 15.7669C5.91089 12.1582 10.3179 8.54946 14.7233 4.93993C15.1295 4.6068 15.7283 4.71852 15.7856 5.14102C16.4139 9.72111 17.0405 14.3014 17.6653 18.882C17.7242 19.3049 17.1998 19.7303 16.7338 19.6381" fill="#D1D3D4"/>
<path d="M16.8947 19.6584C12.6335 18.8349 8.37197 18.0171 4.11325 17.1965C3.72732 17.1201 3.66475 16.661 4.00235 16.3799L15.1929 7.21452C15.537 6.93217 16.0432 7.02602 16.0932 7.38352C16.3576 9.32133 16.6221 11.2644 16.8874 13.1994C17.1527 15.1364 17.4179 17.077 17.6824 19.0157C17.732 19.374 17.2871 19.7335 16.8947 19.658" fill="#E6E7E8"/>
<path d="M12.9744 13.1096C12.4142 9.01055 13.5273 5.24624 15.4627 4.70511C17.3993 4.16399 18.566 7.04958 19.1271 11.1495C19.6869 15.2485 19.4285 19.0104 17.4939 19.5515C15.559 20.0926 13.535 17.2079 12.974 13.1096" fill="#D1D3D4"/>
<path d="M13.3868 12.9959C12.8908 9.377 13.8747 6.06119 15.5826 5.58222C17.2905 5.10366 18.22 7.64922 18.7152 11.2657C19.2108 14.8845 19.0824 18.2044 17.3758 18.6826C15.6667 19.1595 13.8816 16.6135 13.3868 12.9959Z" fill="#A7A9AC"/>
<path d="M13.73 13.0812C13.5139 11.5062 13.942 10.0603 14.6863 9.85315C15.4293 9.64434 16.2069 10.7526 16.4226 12.3276C16.6379 13.9035 16.2105 15.3493 15.4667 15.5573C14.7233 15.7657 13.9457 14.6567 13.73 13.0812Z" fill="#E6E7E8"/>
<path d="M5.45274 12.4246C4.05687 13.5678 2.66059 14.711 1.26512 15.8554C0.864151 16.1849 0.938495 16.728 1.39715 16.8166L6.08853 17.7213C5.62581 16.0074 5.43365 14.2345 5.45274 12.4238" fill="#DE374B"/>
<path d="M3.16099 14.5337C2.64627 14.9562 2.13196 15.3779 1.61683 15.7988C1.21668 16.1282 1.29021 16.6714 1.74887 16.7608C2.33508 16.8733 2.92212 16.9866 3.50874 17.1C3.33548 16.2533 3.2193 15.3959 3.16099 14.5337Z" fill="#CE3650"/>
<path d="M0.00971114 16.5758C-0.206414 15.0003 3.20406 13.8023 3.94749 13.5951C4.69093 13.3863 4.19693 14.2472 4.41265 15.8222C4.62796 17.3984 4.5914 17.1043 2.43218 18.0448C1.72368 18.3531 0.22543 18.1508 0.00971114 16.5758Z" fill="#DE374B"/>
<path d="M5.53719 15.2267C5.38525 14.233 5.538 13.2824 5.60138 12.3001C5.34178 12.1632 5.03263 12.1396 4.6475 12.2534C4.39441 12.3285 4.16407 12.4744 3.94916 12.6458C3.6201 14.4321 3.79803 16.8099 5.34585 17.9393C5.512 18.0603 5.74153 18.0896 5.84594 18.0376C5.89022 18.0437 5.93938 18.0461 5.99869 18.042L6.24772 18.0242C6.31963 18.0193 6.78885 17.9636 6.65803 17.7837C6.04216 16.9468 5.7005 16.2879 5.53841 15.2267" fill="#E53E5A"/>
<path d="M22.949 19.1467L22.9149 18.0047C22.9133 17.9454 22.9255 17.9027 22.9299 17.852C22.9324 17.7947 22.9324 17.7366 22.945 17.6789C22.9641 17.5806 22.9949 17.501 23.0327 17.4291C23.0404 17.4124 23.0417 17.3957 23.0494 17.3783C24.5683 14.5812 24.8275 10.9693 23.6705 7.56733C23.0486 5.73839 22.5529 5.9078 22.4944 3.93424C22.4701 3.12742 23.0205 2.81014 23.3695 3.28789C26.5707 7.64736 26.7966 15.1951 23.8607 19.7386C23.5405 20.2358 22.9734 19.9523 22.949 19.1483" fill="#5BC51E"/>
<path d="M20.0443 17.9362C20.035 17.6254 20.0248 17.3097 20.0159 17.0006C20.0151 16.9506 20.0236 16.9189 20.0273 16.8738C20.0301 16.8291 20.0293 16.7779 20.0399 16.73C20.0544 16.6592 20.0786 16.5907 20.1118 16.5265C20.1187 16.5131 20.1203 16.498 20.126 16.4842C21.3768 14.182 21.5885 11.2095 20.6362 8.4092C20.1252 6.90689 19.7193 7.04298 19.6698 5.42123C19.6507 4.75539 20.1024 4.49498 20.3897 4.88742C23.0246 8.47623 23.2098 14.6862 20.7939 18.4277C20.5302 18.838 20.0642 18.6024 20.0443 17.9382" fill="#5BC51E"/>
</g>
<defs>
<clipPath id="clip0_3339_1554">
<rect width="26" height="26" fill="white"/>
</clipPath>
</defs>
</svg>
